# xmcd
#
# Track frame offsets: 
#        150
#        17490
#        34987
#        48946
#        63831
#        77111
#        93200
#        108586
#        124859
#        141855
#        159682
#
# Disc length: 2366 seconds
#
# Revision: 0
# Processed by: cddbd v1.5.2PL0 Copyright (c) Steve Scherf et al.
# Submitted via: ExactAudioCopy v0.99pb4
#
DISCID=8b093c0b
DTITLE=Willie West - Can't Help Myself 
DYEAR=2012
DGENRE=Soul
TTITLE0=Ain't Going For That
TTITLE1=Come On Back To New Orleans
TTITLE2=Can't Help Myself
TTITLE3=Waiting On Your Love
TTITLE4=Not As Sweet As You
TTITLE5=I'll Live
TTITLE6=If You Love Me
TTITLE7=Nola My Home
TTITLE8=Long Gone
TTITLE9=Where Did I Go Wrong
TTITLE10=Nola My Home Acoustic Version
EXTD=
EXTT0=
EXTT1=
EXTT2=
EXTT3=
EXTT4=
EXTT5=
EXTT6=
EXTT7=
EXTT8=
EXTT9=
EXTT10=
PLAYORDER=
